<svg xmlns="http://www.w3.org/2000/svg" width="20" height="20" viewBox="0 0 20 20">
    <path fill="#BC3E4D" fill-rule="evenodd" d="M10.382 15.645c-.176-.275-.588-.275-.763 0C8.339 17.651 7.3 18 6.268 18 5 18 3.402 17.033 2.303 16.127c-.992-.818-1.144-2.043-.815-2.889.199-.51.726-1.262 1.277-1.81.2-.2.166-.525-.074-.676C.334 9.262.654 6.847.83 6.067c.035-.151-.02-.304-.132-.415C-.267 4.7-.47 2 1.656 2c.43 0 .92.096 1.497.294 2.156.739 4.968 3.833 6.465 6.241.174.28.59.28.764 0 1.497-2.408 4.31-5.502 6.465-6.241.577-.198 1.067-.294 1.498-.294 2.127 0 1.922 2.7.955 3.652-.112.111-.166.264-.131.415.177.78.497 3.196-1.86 4.685-.24.151-.274.476-.073.675.55.549 1.078 1.302 1.276 1.811.329.846.177 2.07-.815 2.89C16.598 17.032 15 18 13.733 18c-1.033 0-2.071-.349-3.351-2.355"/>
</svg>
