<svg xmlns="http://www.w3.org/2000/svg" xmlns:xlink="http://www.w3.org/1999/xlink" width="14" height="14" viewBox="0 0 14 14">
    <defs>
        <path id="prefix__a" d="M7 0C3.133 0 0 3.133 0 7s3.133 7 7 7 7-3.133 7-7-3.133-7-7-7zm0 12.645c-3.119 0-5.645-2.526-5.645-5.645C1.355 3.881 3.88 1.355 7 1.355c3.119 0 5.645 2.526 5.645 5.645 0 3.119-2.526 5.645-5.645 5.645zm2.873-7.4L8.118 7l1.755 1.756c.133.132.133.347 0 .48l-.638.637c-.132.133-.347.133-.48 0L7 8.118 5.244 9.873c-.132.133-.347.133-.48 0l-.637-.638c-.133-.132-.133-.347 0-.48L5.882 7 4.127 5.244c-.133-.132-.133-.347 0-.48l.638-.637c.132-.133.347-.133.48 0L7 5.882l1.756-1.755c.132-.133.347-.133.48 0l.637.638c.133.132.133.347 0 .48z"/>
    </defs>
    <g fill="none" fill-rule="evenodd" opacity=".75">
        <mask id="prefix__b" fill="#fff">
            <use xlink:href="#prefix__a"/>
        </mask>
        <use fill="#000" fill-rule="nonzero" xlink:href="#prefix__a"/>
        <g fill="#E8E8E4" mask="url(#prefix__b)">
            <path d="M0 0H14V14H0z"/>
        </g>
    </g>
</svg>
