<svg xmlns="http://www.w3.org/2000/svg" xmlns:xlink="http://www.w3.org/1999/xlink" width="14" height="14" viewBox="0 0 14 14">
    <defs>
        <path id="prefix__a" d="M13.81 12.104l-2.727-2.726c-.123-.123-.29-.191-.465-.191h-.445c.754-.966 1.203-2.18 1.203-3.5C11.376 2.545 8.83 0 5.688 0S0 2.545 0 5.687c0 3.141 2.546 5.687 5.688 5.687 1.32 0 2.535-.449 3.5-1.203v.446c0 .175.069.341.192.464l2.726 2.726c.257.257.673.257.927 0l.774-.774c.257-.257.257-.672.003-.93zM5.688 9.187c-1.933 0-3.5-1.564-3.5-3.5 0-1.933 1.564-3.5 3.5-3.5 1.933 0 3.5 1.564 3.5 3.5 0 1.933-1.564 3.5-3.5 3.5z"/>
    </defs>
    <g fill="none" fill-rule="evenodd" opacity=".75">
        <mask id="prefix__b" fill="#fff">
            <use xlink:href="#prefix__a"/>
        </mask>
        <use fill="#FFF" fill-rule="nonzero" xlink:href="#prefix__a"/>
        <g fill="#E8E8E4" mask="url(#prefix__b)">
            <path d="M0 0H14V14H0z"/>
        </g>
    </g>
</svg>
