<?xml version="1.0" encoding="UTF-8"?>
<svg width="76px" height="82px" viewBox="0 0 76 82" version="1.1" xmlns="http://www.w3.org/2000/svg" xmlns:xlink="http://www.w3.org/1999/xlink">
    <g stroke="none" stroke-width="1" fill="none" fill-rule="evenodd">
        <g transform="translate(-968.000000, -344.000000)" fill="#333">
            <path d="M1006.54296,344.365182 L1017.14637,369.042645 C1017.2425,369.266181 1017.45397,369.407827 1017.69107,369.407827 L1023.0654,369.407827 C1023.38795,369.407827 1023.65282,369.668988 1023.6635,370.000972 C1023.69341,371.173981 1023.14444,373.694845 1017.88972,373.86969 C1017.56504,373.880756 1017.30017,374.148556 1017.30017,374.482753 L1017.30017,390.623806 C1017.30017,390.964642 1017.56077,391.239082 1017.88972,391.239082 L1025.60305,391.239082 C1025.932,391.239082 1026.1926,390.964642 1026.1926,390.623806 L1026.1926,386.898947 C1026.1926,386.841404 1026.18405,386.786073 1026.1691,386.732955 L1024.62259,381.067099 C1024.51579,380.673144 1024.79989,380.283617 1025.19506,380.283617 L1027.93776,380.283617 C1028.2304,380.283617 1028.48246,380.507152 1028.52518,380.808151 L1029.19804,385.562159 C1029.2429,385.863158 1029.49282,386.088907 1029.78973,386.088907 L1031.32129,386.088907 C1031.6481,386.088907 1031.91511,385.812254 1031.91511,385.471417 L1031.91511,380.898893 C1031.91511,380.558057 1032.18212,380.283617 1032.50894,380.283617 L1036.09111,380.283617 C1036.41793,380.283617 1036.68494,380.558057 1036.68494,380.898893 L1036.68494,385.471417 C1036.68494,385.812254 1036.94981,386.088907 1037.2809,386.088907 L1038.81032,386.088907 C1039.10723,386.088907 1039.35715,385.863158 1039.39987,385.562159 L1040.07487,380.808151 C1040.11973,380.507152 1040.36965,380.283617 1040.66442,380.283617 L1043.40499,380.283617 C1043.79803,380.283617 1044.08426,380.673144 1043.97746,381.067099 L1042.43095,386.732955 C1042.41599,386.786073 1042.40745,386.841404 1042.40745,386.898947 L1042.40745,425.38251 C1042.40745,425.723347 1042.14044,426 1041.81362,426 L1025.61159,426 C1025.2805,426 1025.01563,425.729987 1025.01563,425.38915 C1025.01349,424.174089 1025.01349,421.471741 1025.01349,420.25668 C1025.01349,419.915843 1024.74862,419.64583 1024.41967,419.64583 L1018.38529,419.64583 C1018.05847,419.64583 1017.79146,419.922483 1017.79146,420.261107 L1017.79146,425.38251 C1017.79146,425.723347 1017.53087,426 1017.20191,426 L1006.0004,426 L994.798887,426 C994.469933,426 994.209334,425.723347 994.209334,425.38251 L994.209334,420.261107 C994.209334,419.922483 993.944462,419.64583 993.613372,419.64583 L987.578996,419.64583 C987.252178,419.64583 986.98517,419.915843 986.98517,420.25668 L986.98517,425.38915 C986.98517,425.729987 986.718162,426 986.389209,426 L970.187174,426 C969.85822,426 969.591213,425.723347 969.591213,425.38251 L969.591213,386.898947 C969.591213,386.841404 969.584804,386.786073 969.569852,386.732955 L968.023343,381.067099 C967.914403,380.673144 968.200636,380.283617 968.593671,380.283617 L971.336376,380.283617 C971.631152,380.283617 971.881072,380.507152 971.923793,380.808151 L972.598789,385.562159 C972.643646,385.863158 972.893565,386.088907 973.188342,386.088907 L974.719899,386.088907 C975.048852,386.088907 975.31586,385.812254 975.31586,385.471417 L975.31586,380.898893 C975.31586,380.558057 975.580732,380.283617 975.909686,380.283617 L979.489727,380.283617 C979.81868,380.283617 980.083552,380.558057 980.083552,380.898893 L980.083552,385.471417 C980.083552,385.812254 980.35056,386.088907 980.679513,386.088907 L982.21107,386.088907 C982.505847,386.088907 982.755766,385.863158 982.800624,385.562159 L983.475619,380.808151 C983.518341,380.507152 983.76826,380.283617 984.065173,380.283617 L986.805741,380.283617 C987.198776,380.283617 987.485009,380.673144 987.37607,381.067099 L985.82956,386.732955 C985.814608,386.786073 985.806064,386.841404 985.806064,386.898947 L985.806064,390.623806 C985.806064,390.964642 986.066663,391.239082 986.395617,391.239082 L993.630461,391.239082 C994.437892,391.239082 994.698492,390.964642 994.698492,390.623806 L994.698492,374.482753 C994.698492,374.148556 994.43362,373.880756 994.111075,373.86969 C988.856361,373.694845 988.305257,371.173981 988.339434,370.000972 C988.345842,369.668988 988.610714,369.407827 988.933259,369.407827 L994.307593,369.407827 C994.544696,369.407827 994.756166,369.266181 994.852289,369.042645 L1005.4557,344.365182 C1005.66717,343.878273 1006.33362,343.878273 1006.54296,344.365182" id="Set/Adventure-at-Hogwarts"></path>
        </g>
    </g>
</svg>