<?xml version="1.0" encoding="UTF-8"?>
<svg width="76px" height="86px" viewBox="0 0 76 86" version="1.1" xmlns="http://www.w3.org/2000/svg" xmlns:xlink="http://www.w3.org/1999/xlink">
    <g stroke="none" stroke-width="1" fill="none" fill-rule="evenodd">
        <g transform="translate(-1095.000000, -343.000000)" fill="#333">
            <path d="M1169.53902,420.396409 L1167.93243,420.651736 C1167.59248,420.705123 1167.25021,420.593707 1167.00806,420.349986 L1159.82961,413.117275 L1161.12653,412.072756 C1162.945,410.603466 1163.47588,407.929499 1162.0998,406.04008 C1160.63291,404.027641 1157.79226,403.672505 1155.87599,405.216071 L1153.4824,407.14727 C1138.65517,388.786953 1122.47049,372.413543 1122.47049,372.413543 C1107.90637,361.773379 1100.70697,348.426752 1097.80346,343.719454 C1097.00249,342.419609 1094.9861,342.997576 1095,344.522573 C1095.05828,350.986983 1098.77906,361.993889 1106.41853,373.611257 C1114.23495,385.500201 1138.74598,405.399442 1147.2586,412.167923 L1145.84293,413.30993 C1144.02446,414.776899 1143.49358,417.450867 1144.86966,419.340285 C1146.33655,421.355045 1149.1772,421.710182 1151.09347,420.164294 L1152.9329,418.678756 L1152.92824,418.683399 L1162.03227,427.659296 C1162.03227,427.659296 1163.48054,429.516218 1167.45511,428.859332 C1169.12224,428.580793 1170.48668,427.332013 1170.89648,425.697922 C1171.19451,424.502528 1170.81033,422.949677 1170.23754,420.849034 C1170.15372,420.544963 1169.85103,420.347665 1169.53902,420.396409" id="Set/Chamer-of-Secrets"></path>
        </g>
    </g>
</svg>