<?xml version="1.0" encoding="UTF-8"?>
<svg width="86px" height="59px" viewBox="0 0 86 59" version="1.1" xmlns="http://www.w3.org/2000/svg" xmlns:xlink="http://www.w3.org/1999/xlink">
    <g stroke="none" stroke-width="1" fill="none" fill-rule="evenodd">
        <g transform="translate(-830.000000, -356.000000)" fill="#333">
            <path d="M913.288027,356 C914.784205,356 916,357.24148 916,358.777256 C916,360.310559 914.784205,361.554512 913.288027,361.554512 L913.288027,361.554512 L894.874649,361.554512 L894.874649,377.043342 C903.005734,381.017563 908.1638,386.824328 908.1638,393.311187 C908.1638,405.288259 890.666498,415 869.0819,415 C847.499719,415 830,405.288259 830,393.311187 C830,386.364338 835.909781,380.194031 845.063294,376.224756 L845.063294,376.224756 L845.063294,361.554512 L832.711973,361.554512 C831.215795,361.554512 830,360.310559 830,358.777256 C830,357.24148 831.215795,356 832.711973,356 L832.711973,356 Z M890,361 L851,361 L851,374.371226 C856.535484,372.615356 862.874194,371.61871 869.612097,371.61871 C877.092742,371.61871 884.055645,372.868431 890,375 L890,375 L890,361 Z" id="Set/Diagon-Alley"></path>
        </g>
    </g>
</svg>