<?xml version="1.0" encoding="UTF-8"?>
<svg width="77px" height="63px" viewBox="0 0 77 63" version="1.1" xmlns="http://www.w3.org/2000/svg" xmlns:xlink="http://www.w3.org/1999/xlink">
    <g stroke="none" stroke-width="1" fill="none" fill-rule="evenodd">
        <g transform="translate(-1221.000000, -354.000000)" fill="#333">
            <path d="M1289.61328,376.291842 C1289.41143,375.537032 1290.97014,374.58399 1290.97014,374.58399 C1291.40373,374.317138 1292.96618,373.659539 1293.97728,373.377438 C1294.17913,373.320256 1294.62954,373.223045 1294.66318,372.759867 C1294.66132,372.279533 1294.37724,372.052709 1294.13053,371.732487 C1293.48388,370.895716 1292.34569,369.40897 1292.33634,367.769737 C1292.3326,366.740451 1295.08557,366.010421 1295.93781,366.052355 C1297.02367,366.090476 1295.80138,364.927765 1295.53972,364.714283 C1294.72112,364.045247 1293.54555,362.806292 1293.25026,362.383141 C1293.25026,362.383141 1292.1943,360.879241 1292.67649,360.269294 C1293.67638,358.996029 1296.77323,356.870744 1297.85722,356.411378 C1298.15625,355.702315 1297.89273,355.242948 1297.89273,355.242948 C1297.66846,355.048527 1297.16571,354.716869 1297.16571,354.716869 C1293.68385,354.204132 1290.20761,353.975402 1286.76126,354.002087 C1280.10593,353.965871 1264.87772,355.361125 1258.94193,357.055635 C1256.09365,357.827599 1242.60543,368.29391 1234.87545,374.749819 C1231.86083,377.271569 1229.69098,379.08235 1229.37513,379.667518 C1226.09512,385.782237 1221.3891,401.183402 1221.00597,407.768925 C1220.94429,408.855393 1221.35733,415.692519 1222.40955,416.491168 C1222.81324,416.798048 1223.53466,417.181171 1223.65427,416.904789 C1223.7907,416.590285 1224.0374,415.776387 1224.0374,415.776387 C1225.17933,411.074076 1232.51683,398.139385 1235.74638,394.157574 C1236.05663,393.776357 1237.89754,392.754695 1240.45987,391.332756 C1247.02737,387.686416 1258.38498,381.903355 1260.59408,381.720371 C1278.25006,381.228601 1282.75423,382.330318 1292.1644,385.399114 C1293.38108,384.962621 1293.81468,383.168995 1293.64834,382.949796 C1293.48201,382.730596 1293.23904,382.400843 1292.79984,381.874764 C1291.94573,380.917909 1290.02258,377.822428 1289.61328,376.291842" id="Set/Heir-of-Slytherin"></path>
        </g>
    </g>
</svg>