<?xml version="1.0" encoding="UTF-8"?>
<svg width="76px" height="67px" viewBox="0 0 76 67" version="1.1" xmlns="http://www.w3.org/2000/svg" xmlns:xlink="http://www.w3.org/1999/xlink">
    <g stroke="none" stroke-width="1" fill="none" fill-rule="evenodd">
        <g transform="translate(-704.000000, -352.000000)" fill="#333">
            <path d="M709,368.680368 C709,358.303543 719.212396,365.317242 719.212396,365.317242 C719.212396,365.317242 721.205388,380.839364 725,394 C725,394 709,379.057194 709,368.680368 M764.787604,365.317242 C764.787604,365.317242 775,358.303543 775,368.680368 C775,379.057194 759,394 759,394 C762.794612,380.839364 764.787604,365.317242 764.787604,365.317242 M780,368.783229 C780,356.951633 765.078861,361.048808 765.078861,361.048808 L765.078861,358.044494 C768.558478,358.044494 768.892702,355.021192 767.071901,353.997953 C764.535492,352.569638 755.946149,352 742.001025,352 C728.053851,352 719.464508,352.569638 716.928099,353.997953 C715.107298,355.021192 715.441522,358.044494 718.921139,358.044494 L718.921139,361.048808 C718.921139,361.048808 704,356.951633 704,368.783229 C704,382.04103 714.369135,388.212111 736.251558,410.225462 C736.864643,410.841515 736.766222,411.909059 736.03216,412.36899 L727.293134,417.858614 C726.77847,418.183519 726.999919,419 727.604802,419 L742.001025,419 L756.401349,419 C757.004182,419 757.225631,418.185628 756.710967,417.862833 L747.96784,412.36899 C747.233778,411.909059 747.135357,410.841515 747.748442,410.225462 C769.630865,388.212111 780,382.04103 780,368.783229" id="Set/Quidditch-Cup"></path>
        </g>
    </g>
</svg>